<svg xmlns="http://www.w3.org/2000/svg" version="1.1" xmlns:xlink="http://www.w3.org/1999/xlink" xmlns:svgjs="http://svgjs.dev/svgjs" width="1440" height="560" preserveAspectRatio="none" viewBox="0 0 1440 560"><g mask="url(&quot;#SvgjsMask1717&quot;)" fill="none"><rect width="1440" height="560" x="0" y="0" fill="url(&quot;#SvgjsLinearGradient1718&quot;)"></rect><path d="M891.84 65.98 a141.95 141.95 0 1 0 283.9 0 a141.95 141.95 0 1 0 -283.9 0z" fill="rgba(28, 83, 142, 0.4)" class="triangle-float2"></path><path d="M963.52 235.64 a179.53 179.53 0 1 0 359.06 0 a179.53 179.53 0 1 0 -359.06 0z" fill="rgba(28, 83, 142, 0.4)" class="triangle-float3"></path><path d="M544.47 67.56 a112.67 112.67 0 1 0 225.34 0 a112.67 112.67 0 1 0 -225.34 0z" fill="rgba(28, 83, 142, 0.4)" class="triangle-float2"></path><path d="M868.6544386003958 289.73584405565447L902.2543500788069 406.91266065724096 1019.4311666803934 373.3127491788299 985.8312552019823 256.13593257724335z" fill="rgba(28, 83, 142, 0.4)" class="triangle-float1"></path><path d="M1398.641,443.719C1438.701,444.865,1484.563,444.241,1505.685,410.183C1527.516,374.98,1514.304,329.275,1490.743,295.205C1470.354,265.721,1434.485,255.851,1398.641,255.394C1361.747,254.924,1322.503,261.879,1302.378,292.804C1280.641,326.205,1280.275,370.748,1301.706,404.346C1321.807,435.86,1361.277,442.65,1398.641,443.719" fill="rgba(28, 83, 142, 0.4)" class="triangle-float2"></path><path d="M222.9997113631399 540.3042996443743L353.03666920040513 634.7816797255874 447.51404928161827 504.7447218883222 317.47709144435305 410.26734180710906z" fill="rgba(28, 83, 142, 0.4)" class="triangle-float2"></path><path d="M105.41 11.68 a177.4 177.4 0 1 0 354.8 0 a177.4 177.4 0 1 0 -354.8 0z" fill="rgba(28, 83, 142, 0.4)" class="triangle-float3"></path><path d="M830.1549523695139 505.5528763506632L951.4920640455653 443.8741173842899 852.8491442182204 377.3386278345412z" fill="rgba(28, 83, 142, 0.4)" class="triangle-float1"></path><path d="M742.7022627861131 283.2051668806458L654.7237676495967 181.99748556074996 553.5160863297008 269.97598069726644 641.4945814662174 371.18366201716225z" fill="rgba(28, 83, 142, 0.4)" class="triangle-float2"></path></g><defs><mask id="SvgjsMask1717"><rect width="1440" height="560" fill="#ffffff"></rect></mask><linearGradient x1="15.28%" y1="139.29%" x2="84.72%" y2="-39.29%" gradientUnits="userSpaceOnUse" id="SvgjsLinearGradient1718"><stop stop-color="#0e2a47" offset="0"></stop><stop stop-color="rgba(62, 190, 231, 1)" offset="1"></stop></linearGradient><style>
                @keyframes float1 {
                    0%{transform: translate(0, 0)}
                    50%{transform: translate(-10px, 0)}
                    100%{transform: translate(0, 0)}
                }

                .triangle-float1 {
                    animation: float1 5s infinite;
                }

                @keyframes float2 {
                    0%{transform: translate(0, 0)}
                    50%{transform: translate(-5px, -5px)}
                    100%{transform: translate(0, 0)}
                }

                .triangle-float2 {
                    animation: float2 4s infinite;
                }

                @keyframes float3 {
                    0%{transform: translate(0, 0)}
                    50%{transform: translate(0, -10px)}
                    100%{transform: translate(0, 0)}
                }

                .triangle-float3 {
                    animation: float3 6s infinite;
                }
            </style></defs></svg>